<mxfile host="app.diagrams.net" modified="2023-11-18T11:30:32.987Z" agent="Mozilla/5.0 (Windows NT 10.0; Win64; x64) AppleWebKit/537.36 (KHTML, like Gecko) Chrome/119.0.0.0 Safari/537.36 Edg/119.0.0.0" etag="9wxpgb2spB4mP6iTn_lj" version="22.1.3" type="github">
  <diagram name="第 1 页" id="OdofhoJKY7bxzw-8I2n-">
    <mxGraphModel dx="1173" dy="772" grid="1" gridSize="10" guides="1" tooltips="1" connect="1" arrows="1" fold="1" page="1" pageScale="1" pageWidth="827" pageHeight="1169" math="0" shadow="0">
      <root>
        <mxCell id="0" />
        <mxCell id="1" parent="0" />
        <mxCell id="LdTwp_9h6et6fHKoMwCf-1" value="" style="html=1;whiteSpace=wrap;" parent="1" vertex="1">
          <mxGeometry x="110" y="240" width="190" height="270" as="geometry" />
        </mxCell>
        <mxCell id="LdTwp_9h6et6fHKoMwCf-3" value="&lt;font style=&quot;font-size: 14px;&quot;&gt;借款子系统&lt;/font&gt;" style="text;html=1;align=center;verticalAlign=middle;resizable=0;points=[];autosize=1;strokeColor=none;fillColor=none;" parent="1" vertex="1">
          <mxGeometry x="110" y="240" width="90" height="30" as="geometry" />
        </mxCell>
        <mxCell id="LdTwp_9h6et6fHKoMwCf-4" value="&lt;span style=&quot;font-size: 14px;&quot;&gt;借款试算&lt;/span&gt;" style="ellipse;whiteSpace=wrap;html=1;" parent="1" vertex="1">
          <mxGeometry x="145" y="280" width="120" height="47.5" as="geometry" />
        </mxCell>
        <mxCell id="LdTwp_9h6et6fHKoMwCf-5" value="&lt;span style=&quot;font-size: 14px;&quot;&gt;生成还款计划&lt;/span&gt;" style="ellipse;whiteSpace=wrap;html=1;" parent="1" vertex="1">
          <mxGeometry x="145" y="440" width="120" height="47.5" as="geometry" />
        </mxCell>
        <mxCell id="LdTwp_9h6et6fHKoMwCf-10" value="&lt;span style=&quot;font-size: 14px;&quot;&gt;查看还款计划&lt;/span&gt;" style="ellipse;whiteSpace=wrap;html=1;" parent="1" vertex="1">
          <mxGeometry x="420" y="440" width="120" height="47.5" as="geometry" />
        </mxCell>
        <mxCell id="LdTwp_9h6et6fHKoMwCf-11" value="借款人" style="shape=umlActor;verticalLabelPosition=bottom;verticalAlign=top;html=1;" parent="1" vertex="1">
          <mxGeometry x="630" y="370" width="30" height="60" as="geometry" />
        </mxCell>
        <mxCell id="LdTwp_9h6et6fHKoMwCf-13" value="&lt;span style=&quot;font-size: 14px;&quot;&gt;借款预申请&lt;/span&gt;" style="ellipse;whiteSpace=wrap;html=1;" parent="1" vertex="1">
          <mxGeometry x="420" y="280" width="120" height="47.5" as="geometry" />
        </mxCell>
        <mxCell id="LdTwp_9h6et6fHKoMwCf-17" value="&amp;lt;&amp;lt;include&amp;gt;&amp;gt;" style="endArrow=open;endSize=12;dashed=1;html=1;rounded=0;exitX=0.5;exitY=0;exitDx=0;exitDy=0;" parent="1" source="LdTwp_9h6et6fHKoMwCf-13" target="I3YMyfkmKG_i2JHdKhAR-1" edge="1">
          <mxGeometry width="160" relative="1" as="geometry">
            <mxPoint x="480" y="290" as="sourcePoint" />
            <mxPoint x="480" y="210" as="targetPoint" />
          </mxGeometry>
        </mxCell>
        <mxCell id="RLZ_0ZyspcWT08PIU5pM-1" value="&amp;lt;&amp;lt;include&amp;gt;&amp;gt;" style="endArrow=open;endSize=12;dashed=1;html=1;rounded=0;entryX=1;entryY=0.5;entryDx=0;entryDy=0;exitX=0;exitY=0.5;exitDx=0;exitDy=0;" parent="1" source="LdTwp_9h6et6fHKoMwCf-13" target="LdTwp_9h6et6fHKoMwCf-4" edge="1">
          <mxGeometry width="160" relative="1" as="geometry">
            <mxPoint x="360" y="340" as="sourcePoint" />
            <mxPoint x="360" y="280" as="targetPoint" />
          </mxGeometry>
        </mxCell>
        <mxCell id="I3YMyfkmKG_i2JHdKhAR-1" value="&lt;span style=&quot;font-size: 14px;&quot;&gt;期数金额校验&lt;/span&gt;" style="ellipse;whiteSpace=wrap;html=1;" parent="1" vertex="1">
          <mxGeometry x="420" y="180" width="120" height="47.5" as="geometry" />
        </mxCell>
        <mxCell id="j6prNloPOhKVJjNNVZex-1" value="&amp;lt;&amp;lt;include&amp;gt;&amp;gt;" style="endArrow=open;endSize=12;dashed=1;html=1;rounded=0;entryX=0.5;entryY=0;entryDx=0;entryDy=0;exitX=0.5;exitY=1;exitDx=0;exitDy=0;" edge="1" parent="1" source="LdTwp_9h6et6fHKoMwCf-4" target="LdTwp_9h6et6fHKoMwCf-5">
          <mxGeometry width="160" relative="1" as="geometry">
            <mxPoint x="430" y="314" as="sourcePoint" />
            <mxPoint x="275" y="314" as="targetPoint" />
          </mxGeometry>
        </mxCell>
        <mxCell id="j6prNloPOhKVJjNNVZex-2" value="&amp;lt;&amp;lt;extend&amp;gt;&amp;gt;" style="endArrow=open;endSize=12;dashed=1;html=1;rounded=0;entryX=0;entryY=0.5;entryDx=0;entryDy=0;exitX=1;exitY=0.5;exitDx=0;exitDy=0;" edge="1" parent="1" source="LdTwp_9h6et6fHKoMwCf-5" target="LdTwp_9h6et6fHKoMwCf-10">
          <mxGeometry width="160" relative="1" as="geometry">
            <mxPoint x="420" y="380" as="sourcePoint" />
            <mxPoint x="265" y="380" as="targetPoint" />
          </mxGeometry>
        </mxCell>
        <mxCell id="j6prNloPOhKVJjNNVZex-3" value="" style="endArrow=open;endSize=12;html=1;rounded=0;exitX=0;exitY=0.3333333333333333;exitDx=0;exitDy=0;exitPerimeter=0;entryX=1;entryY=0.5;entryDx=0;entryDy=0;" edge="1" parent="1" source="LdTwp_9h6et6fHKoMwCf-11" target="LdTwp_9h6et6fHKoMwCf-13">
          <mxGeometry x="0.0001" width="160" relative="1" as="geometry">
            <mxPoint x="715" y="360" as="sourcePoint" />
            <mxPoint x="630" y="360" as="targetPoint" />
            <mxPoint as="offset" />
          </mxGeometry>
        </mxCell>
        <mxCell id="j6prNloPOhKVJjNNVZex-4" value="" style="endArrow=open;endSize=12;html=1;rounded=0;exitX=0;exitY=0.3333333333333333;exitDx=0;exitDy=0;exitPerimeter=0;entryX=1;entryY=0.5;entryDx=0;entryDy=0;" edge="1" parent="1" target="LdTwp_9h6et6fHKoMwCf-10">
          <mxGeometry x="0.0001" width="160" relative="1" as="geometry">
            <mxPoint x="640" y="400" as="sourcePoint" />
            <mxPoint x="550" y="314" as="targetPoint" />
            <mxPoint as="offset" />
          </mxGeometry>
        </mxCell>
      </root>
    </mxGraphModel>
  </diagram>
</mxfile>
